<?xml version="1.0" standalone="no"?>
<!DOCTYPE svg PUBLIC "-//W3C//DTD SVG 20010904//EN"
 "http://www.w3.org/TR/2001/REC-SVG-20010904/DTD/svg10.dtd">
<svg version="1.0" xmlns="http://www.w3.org/2000/svg"
 width="500.000000pt" height="500.000000pt" viewBox="0 0 500.000000 500.000000"
 preserveAspectRatio="xMidYMid meet">
<metadata>
Created by potrace 1.14, written by Peter Selinger 2001-2017
</metadata>
<g transform="translate(0.000000,500.000000) scale(0.100000,-0.100000)"
fill="#000000" stroke="none">
<path d="M1845 4910 c-149 -39 -461 -160 -569 -221 -10 -6 -35 -20 -55 -31
-20 -11 -74 -46 -121 -77 -47 -31 -89 -58 -94 -60 -5 -2 -16 -11 -26 -20 -10
-9 -33 -27 -51 -41 -19 -14 -61 -49 -94 -79 -33 -29 -76 -68 -95 -85 -69 -61
-280 -336 -280 -364 0 -6 -4 -12 -9 -14 -15 -6 -154 -267 -169 -318 -12 -40
-49 -145 -61 -175 -33 -79 -103 -405 -116 -540 -19 -205 -25 -467 -14 -666 13
-243 86 -522 191 -734 58 -116 84 -158 181 -285 137 -178 243 -278 447 -418
117 -80 369 -191 495 -217 202 -43 251 -49 420 -49 146 0 198 4 330 29 70 13
254 71 335 107 78 34 93 42 160 82 104 62 182 118 303 216 40 32 115 109 182
185 38 44 72 82 75 85 3 3 17 21 32 42 15 20 33 42 40 50 26 27 118 170 118
182 0 1 -28 3 -62 4 -66 1 -120 6 -203 17 -229 29 -445 157 -560 329 -34 52
-38 55 -51 39 -7 -10 -14 -23 -14 -29 0 -15 -105 -123 -160 -164 -25 -19 -47
-37 -50 -40 -11 -12 -66 -44 -79 -46 -8 -2 -17 -6 -20 -11 -16 -22 -184 -87
-256 -98 -115 -19 -150 -22 -249 -19 -61 1 -122 5 -136 8 -14 3 -41 9 -60 12
-66 13 -190 66 -263 113 -234 154 -394 414 -452 736 -34 188 -40 733 -11 950
1 11 6 49 10 85 4 36 12 83 18 105 6 22 12 47 13 55 10 75 86 302 137 409 28
58 51 109 50 114 -1 4 3 7 8 7 6 0 10 6 10 13 0 19 129 214 181 272 85 97 175
185 238 237 35 29 69 57 75 63 55 51 292 206 339 222 9 3 17 9 17 14 0 5 6 9
13 9 6 1 26 7 42 15 44 20 5 18 -80 -5z"/>
<path d="M2909 4616 c-2 -3 -34 -7 -69 -10 -36 -2 -101 -12 -145 -21 -44 -9
-91 -18 -105 -20 -88 -16 -301 -87 -410 -137 -113 -53 -135 -62 -142 -60 -5 1
-8 -3 -8 -8 0 -6 -5 -10 -11 -10 -22 0 -144 -96 -221 -174 -89 -90 -152 -179
-200 -282 -18 -38 -34 -73 -35 -79 -1 -5 -15 -46 -29 -90 -35 -103 -37 -108
-40 -123 -6 -30 -36 -216 -40 -246 -15 -125 -21 -487 -10 -641 4 -55 9 -131
11 -168 13 -183 142 -293 340 -291 66 1 91 6 145 31 74 33 111 72 148 152 l25
55 2 525 c2 289 6 540 9 556 15 65 65 154 117 206 87 88 170 120 298 115 97
-3 184 -41 253 -111 52 -53 103 -142 112 -195 3 -19 8 -53 12 -75 3 -22 7
-245 8 -495 2 -250 7 -468 11 -485 18 -68 102 -195 129 -195 3 0 18 -8 33 -17
29 -19 25 -18 108 -36 156 -35 304 60 370 238 15 39 16 65 19 595 2 294 4 543
5 553 1 23 50 72 79 82 61 19 135 -30 220 -143 15 -21 30 -39 33 -42 17 -14
81 -139 123 -238 46 -111 81 -226 91 -299 5 -37 9 -59 21 -105 13 -56 18 -478
7 -603 -15 -163 -25 -218 -78 -457 -5 -21 -82 -241 -102 -288 -125 -300 -340
-594 -588 -803 -44 -37 -93 -79 -110 -93 -16 -14 -38 -30 -49 -36 -11 -6 -29
-19 -40 -29 -11 -11 -25 -19 -32 -19 -7 0 -14 -4 -16 -8 -7 -19 -416 -247
-431 -240 -1 0 -22 -8 -47 -20 -62 -28 -123 -53 -135 -56 -5 -2 -17 -6 -25 -9
-57 -24 -210 -76 -210 -71 0 4 -7 1 -15 -6 -8 -7 -15 -9 -15 -5 0 4 -6 2 -14
-4 -18 -15 -153 -50 -162 -42 -4 3 -4 1 -1 -5 14 -24 429 -24 578 1 13 2 42 6
64 9 22 4 53 9 68 12 16 3 38 8 50 9 12 2 51 11 87 21 36 9 70 17 75 18 6 1
15 4 20 8 6 3 26 9 45 13 19 4 85 25 145 47 99 36 136 51 255 106 138 62 399
230 534 342 100 83 295 285 351 364 11 15 34 47 51 70 56 76 134 195 134 206
0 5 5 10 11 10 5 0 8 4 4 9 -3 5 1 16 10 24 36 36 172 345 200 457 1 3 4 12 7
20 22 59 78 309 84 371 2 28 6 54 8 58 3 4 8 39 11 77 3 38 8 83 11 99 2 17 5
125 5 240 1 174 -3 231 -20 330 -38 212 -85 363 -163 534 -29 62 -114 210
-127 221 -4 3 -14 17 -23 31 -9 14 -45 61 -80 105 -196 245 -478 447 -768 551
-90 33 -281 86 -345 97 -16 3 -41 8 -55 11 -31 8 -414 18 -421 11z"/>
</g>
</svg>
