<?xml version="1.0" standalone="no"?> <!DOCTYPE svg PUBLIC "-//W3C//DTD SVG 20010904//EN" "http://www.w3.org/TR/2001/REC-SVG-20010904/DTD/svg10.dtd"> <svg version="1.0" xmlns="http://www.w3.org/2000/svg" width="100" height="36" viewBox="0 0 538.000000 118.000000" preserveAspectRatio="xMidYMid meet"> <g transform="translate(0.000000,118.000000) scale(0.100000,-0.100000)" fill="#3b82f6" stroke="none"> <path d="M34 1145 c-25 -25 -25 -26 -22 -181 3 -150 4 -157 27 -175 30 -24 136 -27 169 -3 21 15 22 21 22 183 0 129 -3 171 -13 180 -8 6 -17 8 -20 4 -4 -3 -7 -1 -7 5 0 8 -22 12 -65 12 -57 0 -69 -3 -91 -25z"/> <path d="M547 1163 c-10 -3 -22 -15 -27 -28 -9 -23 9 -69 362 -940 l73 -180 101 -3 c73 -2 104 1 111 10 25 30 443 1084 439 1104 -8 29 -47 44 -120 44 -46 0 -70 -5 -85 -17 -18 -15 -190 -431 -308 -746 -14 -38 -29 -65 -34 -60 -7 8 -239 587 -239 598 0 3 63 5 140 5 173 0 180 4 180 105 0 57 -3 69 -25 90 l-24 25 -263 -1 c-145 -1 -271 -3 -281 -6z"/> <path d="M1920 1157 c-25 -13 -25 -13 -27 -177 -3 -200 -2 -202 90 -208 72 -4 122 10 113 34 -3 8 -2 12 4 9 12 -7 14 304 2 321 -22 34 -132 46 -182 21z"/> <path d="M2533 1155 c-21 -14 -23 -25 -23 -94 0 -117 -16 -111 300 -111 172 0 276 -4 302 -12 100 -30 140 -165 78 -265 -39 -65 -54 -68 -370 -71 -177 -2 -290 -8 -297 -14 -17 -13 -19 -519 -3 -549 9 -16 22 -19 95 -19 116 0 115 -2 115 207 l0 163 168 0 c194 0 263 10 343 51 105 52 167 138 189 260 24 131 -10 258 -94 343 -104 107 -146 117 -501 123 -248 4 -283 3 -302 -12z"/> <path d="M3772 1154 c-21 -15 -22 -21 -22 -184 0 -199 1 -200 105 -200 104 0 105 1 105 200 0 199 -1 200 -105 200 -39 0 -69 -6 -83 -16z"/> <path d="M4394 1160 c-37 -15 -35 -46 4 -103 58 -85 734 -1011 748 -1024 8 -9 44 -13 103 -13 82 0 91 2 105 22 14 20 16 89 16 555 0 579 2 554 -56 569 -37 9 -130 -1 -148 -15 -14 -12 -16 -61 -17 -385 l0 -371 -29 35 c-17 19 -138 184 -271 365 -132 182 -252 340 -265 353 -21 19 -36 22 -97 21 -40 0 -82 -4 -93 -9z"/> <path d="M29 683 c-11 -13 -15 -80 -17 -320 l-3 -303 25 -25 c21 -21 34 -25 88 -25 41 0 71 5 86 16 22 15 22 16 22 333 0 233 -3 320 -12 329 -7 7 -44 12 -94 12 -64 0 -85 -4 -95 -17z"/> <path d="M1906 684 c-14 -13 -16 -57 -16 -328 0 -279 2 -315 17 -327 10 -9 43 -14 95 -14 67 0 82 3 94 19 11 16 14 77 14 326 0 362 7 340 -113 340 -55 0 -80 -4 -91 -16z"/> <path d="M3768 689 c-17 -9 -18 -36 -18 -329 0 -318 0 -319 22 -334 30 -21 136 -21 166 0 22 15 22 16 22 333 0 233 -3 320 -12 329 -15 15 -156 16 -180 1z"/> <path d="M4385 397 c-18 -14 -20 -29 -23 -169 -3 -202 -3 -202 107 -206 52 -2 88 1 97 9 11 9 14 47 14 178 0 91 -5 173 -10 181 -14 22 -158 27 -185 7z"/> </g> </svg>